<?xml version="1.0" standalone="no"?>
<!DOCTYPE svg PUBLIC "-//W3C//DTD SVG 20010904//EN"
 "http://www.w3.org/TR/2001/REC-SVG-20010904/DTD/svg10.dtd">
<svg version="1.0" xmlns="http://www.w3.org/2000/svg"
 width="700.000000pt" height="700.000000pt" viewBox="0 0 700.000000 700.000000"
 preserveAspectRatio="xMidYMid meet">
<metadata>
Created by potrace 1.14, written by Peter Selinger 2001-2017
</metadata>
<g transform="translate(0.000000,700.000000) scale(0.100000,-0.100000)"
fill="#000000" stroke="none">
<path d="M323 6985 c-29 -8 -72 -24 -95 -36 -58 -29 -140 -109 -171 -167 -61
-113 -57 129 -57 -3282 0 -3411 -4 -3169 57 -3282 31 -57 113 -138 171 -167
106 -54 -101 -51 3272 -51 3411 0 3169 -4 3282 57 57 31 138 113 167 171 54
106 51 -101 51 3272 0 3373 3 3166 -51 3272 -29 58 -110 140 -167 171 -113 61
130 57 -3287 56 -2656 0 -3128 -2 -3172 -14z m1400 -889 c43 -17 93 -76 106
-123 8 -26 11 -591 11 -1765 0 -949 3 -1734 6 -1743 9 -23 61 -47 87 -39 12 3
193 176 402 383 362 359 384 379 455 412 l75 34 635 0 635 0 75 -34 c71 -33
93 -53 455 -412 209 -207 390 -380 402 -383 26 -8 78 16 87 39 3 9 6 794 6
1743 0 1174 3 1739 11 1765 13 47 63 106 106 123 25 11 108 14 363 14 305 0
334 -1 368 -19 42 -22 63 -43 86 -88 15 -29 16 -245 16 -2503 0 -2258 -1
-2474 -16 -2503 -23 -45 -44 -66 -86 -88 -34 -18 -63 -19 -382 -19 -383 0
-416 4 -521 71 -28 17 -322 303 -675 654 -395 394 -640 630 -665 643 -79 39
-144 52 -265 52 -121 0 -186 -13 -265 -52 -25 -13 -270 -249 -665 -643 -353
-351 -647 -637 -675 -654 -105 -67 -138 -71 -522 -71 -297 0 -348 2 -376 16
-45 23 -66 44 -88 86 -18 36 -19 103 -19 2508 0 2405 1 2472 19 2508 21 41 42
62 86 85 26 14 79 16 363 17 257 0 340 -3 365 -14z m2850 0 c43 -17 93 -76
106 -123 16 -56 14 -624 -1 -677 -17 -56 -74 -110 -131 -124 -65 -17 -2029
-17 -2094 0 -57 14 -114 68 -131 124 -15 53 -17 621 -1 677 12 46 63 105 104
123 45 20 2101 20 2148 0z m20 -1435 c21 -13 50 -42 65 -64 l27 -40 3 -318 c2
-208 -1 -332 -8 -359 -13 -49 -63 -108 -107 -126 -48 -20 -2098 -20 -2146 0
-43 17 -93 76 -106 123 -14 51 -14 625 0 676 13 47 76 113 121 126 20 6 435 9
1073 8 l1040 -2 38 -24z"/>
</g>
</svg>
