<?xml version="1.0" encoding="UTF-8" standalone="no"?>
<svg
   xmlns:dc="http://purl.org/dc/elements/1.1/"
   xmlns:cc="http://creativecommons.org/ns#"
   xmlns:rdf="http://www.w3.org/1999/02/22-rdf-syntax-ns#"
   xmlns:svg="http://www.w3.org/2000/svg"
   xmlns="http://www.w3.org/2000/svg"
   xmlns:sodipodi="http://sodipodi.sourceforge.net/DTD/sodipodi-0.dtd"
   xmlns:inkscape="http://www.inkscape.org/namespaces/inkscape"
   width="360"
   height="65"
   viewBox="0 0 95.249997 17.197917"
   version="1.1"
   id="svg1740"
   inkscape:version="1.0.2 (1.0.2+r75+1)"
   sodipodi:docname="logo.svg">
  <defs
     id="defs1734">
    <inkscape:path-effect
       effect="fillet_chamfer"
       id="path-effect1013"
       is_visible="true"
       lpeversion="1"
       satellites_param="F,0,0,1,0,0.79375,0,1 @ F,0,0,1,0,0.79375,0,1 @ F,0,0,1,0,0.79375,0,1 @ F,0,0,1,0,0.79375,0,1 @ F,0,0,1,0,0.79375,0,1 @ F,0,0,1,0,0.79375,0,1 @ F,0,0,1,0,0.79375,0,1 @ F,0,0,1,0,0.79375,0,1 @ F,0,0,1,0,0.79375,0,1 @ F,0,0,1,0,0.79375,0,1 @ F,0,0,1,0,0.79375,0,1 @ F,0,0,1,0,0.79375,0,1"
       unit="px"
       method="auto"
       mode="F"
       radius="3"
       chamfer_steps="1"
       flexible="false"
       use_knot_distance="true"
       apply_no_radius="true"
       apply_with_radius="true"
       only_selected="false"
       hide_knots="false" />
    <inkscape:path-effect
       effect="fillet_chamfer"
       id="path-effect1011"
       is_visible="true"
       lpeversion="1"
       satellites_param="F,0,0,1,0,0.79375,0,1 @ F,0,0,1,0,0.79375,0,1 @ F,0,0,1,0,0.79375,0,1 @ F,0,0,1,0,0.79375,0,1 @ F,0,0,1,0,0.79375,0,1 @ F,0,0,1,0,0.79375,0,1 @ F,0,0,1,0,0.79375,0,1 @ F,0,0,1,0,0.79375,0,1 @ F,0,0,1,0,0.79375,0,1 @ F,0,0,1,0,0.79375,0,1 @ F,0,0,1,0,0.79375,0,1 @ F,0,0,1,0,0.79375,0,1"
       unit="px"
       method="auto"
       mode="F"
       radius="3"
       chamfer_steps="1"
       flexible="false"
       use_knot_distance="true"
       apply_no_radius="true"
       apply_with_radius="true"
       only_selected="false"
       hide_knots="false" />
    <inkscape:path-effect
       effect="fillet_chamfer"
       id="path-effect1009"
       is_visible="true"
       lpeversion="1"
       satellites_param="F,0,0,1,0,0.79375,0,1 @ F,0,0,1,0,0.79375,0,1 @ F,0,0,1,0,0.79375,0,1 @ F,0,0,1,0,0.79375,0,1 @ F,0,0,1,0,0.79375,0,1 @ F,0,0,1,0,0.79375,0,1 @ F,0,0,1,0,0.79375,0,1 @ F,0,0,1,0,0.79375,0,1 @ F,0,0,1,0,0.79375,0,1 @ F,0,0,1,0,0.79375,0,1 @ F,0,0,1,0,0.79375,0,1 @ F,0,0,1,0,0.79375,0,1"
       unit="px"
       method="auto"
       mode="F"
       radius="3"
       chamfer_steps="1"
       flexible="false"
       use_knot_distance="true"
       apply_no_radius="true"
       apply_with_radius="true"
       only_selected="false"
       hide_knots="false" />
    <inkscape:path-effect
       effect="fillet_chamfer"
       id="path-effect1007"
       is_visible="true"
       lpeversion="1"
       satellites_param="F,0,0,1,0,0.79375,0,1 @ F,0,0,1,0,0.79375,0,1 @ F,0,0,1,0,0.79375,0,1 @ F,0,0,1,0,0.79375,0,1 | F,0,0,1,0,0.79375,0,1 @ F,0,0,1,0,0.79375,0,1 @ F,0,0,1,0,0.79375,0,1 @ F,0,0,1,0,0.79375,0,1"
       unit="px"
       method="auto"
       mode="F"
       radius="3"
       chamfer_steps="1"
       flexible="false"
       use_knot_distance="true"
       apply_no_radius="true"
       apply_with_radius="true"
       only_selected="false"
       hide_knots="false" />
    <inkscape:path-effect
       effect="fillet_chamfer"
       id="path-effect1005"
       is_visible="true"
       lpeversion="1"
       satellites_param="F,0,0,1,0,0.79375,0,1 @ F,0,0,1,0,0.79375,0,1 @ F,0,0,1,0,0.79375,0,1 @ F,0,0,1,0,0.79375,0,1 @ F,0,0,1,0,0.79375,0,1 @ F,0,0,1,0,0.79375,0,1 @ F,0,0,1,0,0.79375,0,1 @ F,0,0,1,0,0.79375,0,1"
       unit="px"
       method="auto"
       mode="F"
       radius="3"
       chamfer_steps="1"
       flexible="false"
       use_knot_distance="true"
       apply_no_radius="true"
       apply_with_radius="true"
       only_selected="false"
       hide_knots="false" />
    <inkscape:path-effect
       effect="fillet_chamfer"
       id="path-effect1003"
       is_visible="true"
       lpeversion="1"
       satellites_param="F,0,0,1,0,0.79375,0,1 @ F,0,0,1,0,0.79375,0,1 @ F,0,0,1,0,0.79375,0,1 @ F,0,0,1,0,0.79375,0,1 @ F,0,0,1,0,0.79375,0,1 @ F,0,0,1,0,0.79375,0,1 | F,0,0,1,0,0.79375,0,1 @ F,0,0,1,0,0.79375,0,1 @ F,0,0,1,0,0.79375,0,1 @ F,0,0,1,0,0.79375,0,1"
       unit="px"
       method="auto"
       mode="F"
       radius="3"
       chamfer_steps="1"
       flexible="false"
       use_knot_distance="true"
       apply_no_radius="true"
       apply_with_radius="true"
       only_selected="false"
       hide_knots="false" />
    <inkscape:path-effect
       effect="fillet_chamfer"
       id="path-effect1001"
       is_visible="true"
       lpeversion="1"
       satellites_param="F,0,0,1,0,0.79375,0,1 @ F,0,0,1,0,0.79375,0,1 @ F,0,0,1,0,0.79375,0,1 @ F,0,0,1,0,0.79375,0,1 @ F,0,0,1,0,0.79375,0,1 @ F,0,0,1,0,0.79375,0,1 @ F,0,0,1,0,0.79375,0,1 @ F,0,0,1,0,0.79375,0,1"
       unit="px"
       method="auto"
       mode="F"
       radius="3"
       chamfer_steps="1"
       flexible="false"
       use_knot_distance="true"
       apply_no_radius="true"
       apply_with_radius="true"
       only_selected="false"
       hide_knots="false" />
    <inkscape:path-effect
       effect="fillet_chamfer"
       id="path-effect999"
       is_visible="true"
       lpeversion="1"
       satellites_param="F,0,0,1,0,0.79375,0,1 @ F,0,0,1,0,0.79375,0,1 @ F,0,0,1,0,0.79375,0,1 @ F,0,0,1,0,0.79375,0,1 | F,0,0,1,0,0.79375,0,1 @ F,0,0,1,0,0.79375,0,1 @ F,0,0,1,0,0.79375,0,1 @ F,0,0,1,0,0.79375,0,1"
       unit="px"
       method="auto"
       mode="F"
       radius="3"
       chamfer_steps="1"
       flexible="false"
       use_knot_distance="true"
       apply_no_radius="true"
       apply_with_radius="true"
       only_selected="false"
       hide_knots="false" />
    <inkscape:path-effect
       effect="fillet_chamfer"
       id="path-effect997"
       is_visible="true"
       lpeversion="1"
       satellites_param="F,0,0,1,0,0.79375,0,1 @ F,0,0,1,0,0.79375,0,1 @ F,0,0,1,0,0.79375,0,1 @ F,0,0,1,0,0.79375,0,1 @ F,0,0,1,0,0.79375,0,1 @ F,0,0,1,0,0.79375,0,1 @ F,0,0,1,0,0.79375,0,1 @ F,0,0,1,0,0.79375,0,1 @ F,0,0,1,0,0.79375,0,1 @ F,0,0,1,0,0.79375,0,1 @ F,0,0,1,0,0.79375,0,1 @ F,0,0,1,0,0.79375,0,1 @ F,0,0,1,0,0.65140953,0,1 @ F,0,0,1,0,0.65753348,0,1 @ F,0,0,1,0,0.79375,0,1 @ F,0,0,1,0,0.79375,0,1 @ F,0,0,1,0,0.79375,0,1"
       unit="px"
       method="auto"
       mode="F"
       radius="3"
       chamfer_steps="1"
       flexible="false"
       use_knot_distance="true"
       apply_no_radius="true"
       apply_with_radius="true"
       only_selected="false"
       hide_knots="false" />
    <inkscape:path-effect
       effect="fillet_chamfer"
       id="path-effect944"
       is_visible="true"
       lpeversion="1"
       satellites_param="F,0,0,1,0,0.79375,0,1 @ F,0,0,1,0,0.79375,0,1 @ F,0,0,1,0,0.79375,0,1 @ F,0,0,1,0,0.79375,0,1 @ F,0,0,1,0,0.79375,0,1 @ F,0,0,1,0,0.79375,0,1 @ F,0,0,1,0,0.79375,0,1 @ F,0,0,1,0,0.79375,0,1 @ F,0,0,1,0,0.79375,0,1 @ F,0,0,1,0,0.79375,0,1 @ F,0,0,1,0,0.79375,0,1 @ F,0,0,1,0,0.79375,0,1"
       unit="px"
       method="auto"
       mode="F"
       radius="3"
       chamfer_steps="1"
       flexible="false"
       use_knot_distance="true"
       apply_no_radius="true"
       apply_with_radius="true"
       only_selected="false"
       hide_knots="false" />
    <inkscape:path-effect
       effect="fillet_chamfer"
       id="path-effect942"
       is_visible="true"
       lpeversion="1"
       satellites_param="F,0,0,1,0,0.79375,0,1 @ F,0,0,1,0,0.79375,0,1 @ F,0,0,1,0,0.79375,0,1 @ F,0,0,1,0,0.79375,0,1 @ F,0,0,1,0,0.79375,0,1 @ F,0,0,1,0,0.79375,0,1 @ F,0,0,1,0,0.79375,0,1 @ F,0,0,1,0,0.79375,0,1 @ F,0,0,1,0,0.79375,0,1 @ F,0,0,1,0,0.79375,0,1 @ F,0,0,1,0,0.79375,0,1 @ F,0,0,1,0,0.79375,0,1"
       unit="px"
       method="auto"
       mode="F"
       radius="3"
       chamfer_steps="1"
       flexible="false"
       use_knot_distance="true"
       apply_no_radius="true"
       apply_with_radius="true"
       only_selected="false"
       hide_knots="false" />
    <inkscape:path-effect
       effect="fillet_chamfer"
       id="path-effect940"
       is_visible="true"
       lpeversion="1"
       satellites_param="F,0,0,1,0,0.79375,0,1 @ F,0,0,1,0,0.79375,0,1 @ F,0,0,1,0,0.79375,0,1 @ F,0,0,1,0,0.79375,0,1 @ F,0,0,1,0,0.79375,0,1 @ F,0,0,1,0,0.79375,0,1 @ F,0,0,1,0,0.79375,0,1 @ F,0,0,1,0,0.79375,0,1 @ F,0,0,1,0,0.79375,0,1 @ F,0,0,1,0,0.79375,0,1 @ F,0,0,1,0,0.79375,0,1 @ F,0,0,1,0,0.79375,0,1"
       unit="px"
       method="auto"
       mode="F"
       radius="3"
       chamfer_steps="1"
       flexible="false"
       use_knot_distance="true"
       apply_no_radius="true"
       apply_with_radius="true"
       only_selected="false"
       hide_knots="false" />
    <inkscape:path-effect
       effect="fillet_chamfer"
       id="path-effect938"
       is_visible="true"
       lpeversion="1"
       satellites_param="F,0,0,1,0,0.79375,0,1 @ F,0,0,1,0,0.79375,0,1 @ F,0,0,1,0,0.79375,0,1 @ F,0,0,1,0,0.79375,0,1 | F,0,0,1,0,0.79375,0,1 @ F,0,0,1,0,0.79375,0,1 @ F,0,0,1,0,0.79375,0,1 @ F,0,0,1,0,0.79375,0,1"
       unit="px"
       method="auto"
       mode="F"
       radius="3"
       chamfer_steps="1"
       flexible="false"
       use_knot_distance="true"
       apply_no_radius="true"
       apply_with_radius="true"
       only_selected="false"
       hide_knots="false" />
    <inkscape:path-effect
       effect="fillet_chamfer"
       id="path-effect936"
       is_visible="true"
       lpeversion="1"
       satellites_param="F,0,0,1,0,0.79375,0,1 @ F,0,0,1,0,0.79375,0,1 @ F,0,0,1,0,0.79375,0,1 @ F,0,0,1,0,0.79375,0,1 @ F,0,0,1,0,0.79375,0,1 @ F,0,0,1,0,0.79375,0,1 @ F,0,0,1,0,0.79375,0,1 @ F,0,0,1,0,0.79375,0,1"
       unit="px"
       method="auto"
       mode="F"
       radius="3"
       chamfer_steps="1"
       flexible="false"
       use_knot_distance="true"
       apply_no_radius="true"
       apply_with_radius="true"
       only_selected="false"
       hide_knots="false" />
    <inkscape:path-effect
       effect="fillet_chamfer"
       id="path-effect934"
       is_visible="true"
       lpeversion="1"
       satellites_param="F,0,0,1,0,0.79375,0,1 @ F,0,0,1,0,0.79375,0,1 @ F,0,0,1,0,0.79375,0,1 @ F,0,0,1,0,0.79375,0,1 @ F,0,0,1,0,0.79375,0,1 @ F,0,0,1,0,0.79375,0,1 | F,0,0,1,0,0.79375,0,1 @ F,0,0,1,0,0.79375,0,1 @ F,0,0,1,0,0.79375,0,1 @ F,0,0,1,0,0.79375,0,1"
       unit="px"
       method="auto"
       mode="F"
       radius="3"
       chamfer_steps="1"
       flexible="false"
       use_knot_distance="true"
       apply_no_radius="true"
       apply_with_radius="true"
       only_selected="false"
       hide_knots="false" />
    <inkscape:path-effect
       effect="fillet_chamfer"
       id="path-effect932"
       is_visible="true"
       lpeversion="1"
       satellites_param="F,0,0,1,0,0.79375,0,1 @ F,0,0,1,0,0.79375,0,1 @ F,0,0,1,0,0.79375,0,1 @ F,0,0,1,0,0.79375,0,1 @ F,0,0,1,0,0.79375,0,1 @ F,0,0,1,0,0.79375,0,1 @ F,0,0,1,0,0.79375,0,1 @ F,0,0,1,0,0.79375,0,1"
       unit="px"
       method="auto"
       mode="F"
       radius="3"
       chamfer_steps="1"
       flexible="false"
       use_knot_distance="true"
       apply_no_radius="true"
       apply_with_radius="true"
       only_selected="false"
       hide_knots="false" />
    <inkscape:path-effect
       effect="fillet_chamfer"
       id="path-effect930"
       is_visible="true"
       lpeversion="1"
       satellites_param="F,0,0,1,0,0.79375,0,1 @ F,0,0,1,0,0.79375,0,1 @ F,0,0,1,0,0.79375,0,1 @ F,0,0,1,0,0.79375,0,1 | F,0,0,1,0,0.79375,0,1 @ F,0,0,1,0,0.79375,0,1 @ F,0,0,1,0,0.79375,0,1 @ F,0,0,1,0,0.79375,0,1"
       unit="px"
       method="auto"
       mode="F"
       radius="3"
       chamfer_steps="1"
       flexible="false"
       use_knot_distance="true"
       apply_no_radius="true"
       apply_with_radius="true"
       only_selected="false"
       hide_knots="false" />
    <inkscape:path-effect
       effect="fillet_chamfer"
       id="path-effect928"
       is_visible="true"
       lpeversion="1"
       satellites_param="F,0,0,1,0,0.79375,0,1 @ F,0,0,1,0,0.79375,0,1 @ F,0,0,1,0,0.79375,0,1 @ F,0,0,1,0,0.79375,0,1 @ F,0,0,1,0,0.79375,0,1 @ F,0,0,1,0,0.79375,0,1 @ F,0,0,1,0,0.79375,0,1 @ F,0,0,1,0,0.79375,0,1 @ F,0,0,1,0,0.79375,0,1 @ F,0,0,1,0,0.79375,0,1 @ F,0,0,1,0,0.79375,0,1 @ F,0,0,1,0,0.79375,0,1 @ F,0,0,1,0,0.65140953,0,1 @ F,0,0,1,0,0.65753348,0,1 @ F,0,0,1,0,0.79375,0,1 @ F,0,0,1,0,0.79375,0,1 @ F,0,0,1,0,0.79375,0,1"
       unit="px"
       method="auto"
       mode="F"
       radius="3"
       chamfer_steps="1"
       flexible="false"
       use_knot_distance="true"
       apply_no_radius="true"
       apply_with_radius="true"
       only_selected="false"
       hide_knots="false" />
    <inkscape:path-effect
       effect="fillet_chamfer"
       id="path-effect1136"
       is_visible="true"
       lpeversion="1"
       satellites_param="F,0,0,1,0,0.52916667,0,1 @ F,0,0,1,0,0.52916667,0,1 @ F,0,0,1,0,0.52916667,0,1 @ F,0,0,1,0,0.52916667,0,1 @ F,0,0,1,0,0.52916667,0,1 @ F,0,0,1,0,0.52916667,0,1 @ F,0,0,1,0,0.52916667,0,1 @ F,0,0,1,0,0.52916667,0,1 @ F,0,0,1,0,0.52916667,0,1 @ F,0,0,1,0,0.52916667,0,1 @ F,0,0,1,0,0.52916667,0,1 @ F,0,0,1,0,0.52916667,0,1 @ F,0,0,1,0,0.52916667,0,1 @ F,0,0,1,0,0.52916667,0,1"
       unit="px"
       method="auto"
       mode="F"
       radius="2"
       chamfer_steps="1"
       flexible="false"
       use_knot_distance="true"
       apply_no_radius="true"
       apply_with_radius="true"
       only_selected="false"
       hide_knots="false" />
    <inkscape:path-effect
       effect="fillet_chamfer"
       id="path-effect1140"
       is_visible="true"
       lpeversion="1"
       satellites_param="F,0,0,1,0,0.52916667,0,1 @ F,0,0,1,0,0.52916667,0,1 @ F,0,0,1,0,0.52916667,0,1 @ F,0,0,1,0,0.52916667,0,1"
       unit="px"
       method="auto"
       mode="F"
       radius="2"
       chamfer_steps="1"
       flexible="false"
       use_knot_distance="true"
       apply_no_radius="true"
       apply_with_radius="true"
       only_selected="false"
       hide_knots="false" />
    <inkscape:path-effect
       effect="fillet_chamfer"
       id="path-effect1144"
       is_visible="true"
       lpeversion="1"
       satellites_param="F,0,0,1,0,0.52916667,0,1 @ F,0,0,1,0,0.52916667,0,1 @ F,0,0,1,0,0.52916667,0,1 @ F,0,0,1,0,0.52916667,0,1"
       unit="px"
       method="auto"
       mode="F"
       radius="2"
       chamfer_steps="1"
       flexible="false"
       use_knot_distance="true"
       apply_no_radius="true"
       apply_with_radius="true"
       only_selected="false"
       hide_knots="false" />
    <inkscape:path-effect
       effect="fillet_chamfer"
       id="path-effect1576"
       is_visible="true"
       lpeversion="1"
       satellites_param="F,0,0,1,0,0.52916667,0,1 @ F,0,0,1,0,0.52916667,0,1 @ F,0,0,1,0,0.52916667,0,1 @ F,0,0,1,0,0.52916667,0,1 @ F,0,0,1,0,0.52916667,0,1 @ F,0,0,1,0,0.52916667,0,1 @ F,0,0,1,0,0.52916667,0,1 @ F,0,0,1,0,0.52916667,0,1 @ F,0,0,1,0,0.52916667,0,1 @ F,0,0,1,0,0.52916667,0,1 @ F,0,0,1,0,0.52916667,0,1 @ F,0,0,1,0,0.52916667,0,1 @ F,0,0,1,0,0.52916667,0,1 @ F,0,0,1,0,0.52916667,0,1"
       unit="px"
       method="auto"
       mode="F"
       radius="2"
       chamfer_steps="1"
       flexible="false"
       use_knot_distance="true"
       apply_no_radius="true"
       apply_with_radius="true"
       only_selected="false"
       hide_knots="false" />
    <inkscape:path-effect
       effect="fillet_chamfer"
       id="path-effect1578"
       is_visible="true"
       lpeversion="1"
       satellites_param="F,0,0,1,0,0.52916667,0,1 @ F,0,0,1,0,0.52916667,0,1 @ F,0,0,1,0,0.52916667,0,1 @ F,0,0,1,0,0.52916667,0,1"
       unit="px"
       method="auto"
       mode="F"
       radius="2"
       chamfer_steps="1"
       flexible="false"
       use_knot_distance="true"
       apply_no_radius="true"
       apply_with_radius="true"
       only_selected="false"
       hide_knots="false" />
    <inkscape:path-effect
       effect="fillet_chamfer"
       id="path-effect1580"
       is_visible="true"
       lpeversion="1"
       satellites_param="F,0,0,1,0,0.52916667,0,1 @ F,0,0,1,0,0.52916667,0,1 @ F,0,0,1,0,0.52916667,0,1 @ F,0,0,1,0,0.52916667,0,1"
       unit="px"
       method="auto"
       mode="F"
       radius="2"
       chamfer_steps="1"
       flexible="false"
       use_knot_distance="true"
       apply_no_radius="true"
       apply_with_radius="true"
       only_selected="false"
       hide_knots="false" />
    <inkscape:path-effect
       effect="fillet_chamfer"
       id="path-effect2417"
       is_visible="true"
       lpeversion="1"
       satellites_param="F,0,0,1,0,0.52916667,0,1 @ F,0,0,1,0,0.52916667,0,1 @ F,0,0,1,0,0.52916667,0,1 @ F,0,0,1,0,0.52916667,0,1 @ F,0,0,1,0,0.52916667,0,1 @ F,0,0,1,0,0.52916667,0,1 @ F,0,0,1,0,0.52916667,0,1 @ F,0,0,1,0,0.52916667,0,1 @ F,0,0,1,0,0.52916667,0,1 @ F,0,0,1,0,0.52916667,0,1 @ F,0,0,1,0,0.52916667,0,1 @ F,0,0,1,0,0.52916667,0,1 @ F,0,0,1,0,0.52916667,0,1 @ F,0,0,1,0,0.52916667,0,1"
       unit="px"
       method="auto"
       mode="F"
       radius="2"
       chamfer_steps="1"
       flexible="false"
       use_knot_distance="true"
       apply_no_radius="true"
       apply_with_radius="true"
       only_selected="false"
       hide_knots="false" />
    <inkscape:path-effect
       effect="fillet_chamfer"
       id="path-effect2421"
       is_visible="true"
       lpeversion="1"
       satellites_param="F,0,0,1,0,0.52916667,0,1 @ F,0,0,1,0,0.52916667,0,1 @ F,0,0,1,0,0.52916667,0,1 @ F,0,0,1,0,0.52916667,0,1"
       unit="px"
       method="auto"
       mode="F"
       radius="2"
       chamfer_steps="1"
       flexible="false"
       use_knot_distance="true"
       apply_no_radius="true"
       apply_with_radius="true"
       only_selected="false"
       hide_knots="false" />
    <inkscape:path-effect
       effect="fillet_chamfer"
       id="path-effect2425"
       is_visible="true"
       lpeversion="1"
       satellites_param="F,0,0,1,0,0.52916667,0,1 @ F,0,0,1,0,0.52916667,0,1 @ F,0,0,1,0,0.52916667,0,1 @ F,0,0,1,0,0.52916667,0,1"
       unit="px"
       method="auto"
       mode="F"
       radius="2"
       chamfer_steps="1"
       flexible="false"
       use_knot_distance="true"
       apply_no_radius="true"
       apply_with_radius="true"
       only_selected="false"
       hide_knots="false" />
  </defs>
  <sodipodi:namedview
     id="base"
     pagecolor="#ffffff"
     bordercolor="#666666"
     borderopacity="1.0"
     inkscape:pageopacity="0.0"
     inkscape:pageshadow="2"
     inkscape:zoom="1.979899"
     inkscape:cx="171.78185"
     inkscape:cy="65.109044"
     inkscape:document-units="mm"
     inkscape:current-layer="layer1"
     inkscape:document-rotation="0"
     showgrid="true"
     units="px"
     inkscape:window-width="1920"
     inkscape:window-height="1053"
     inkscape:window-x="0"
     inkscape:window-y="27"
     inkscape:window-maximized="1">
    <inkscape:grid
       type="xygrid"
       id="grid1015" />
  </sodipodi:namedview>
  <metadata
     id="metadata1737">
    <rdf:RDF>
      <cc:Work
         rdf:about="">
        <dc:format>image/svg+xml</dc:format>
        <dc:type
           rdf:resource="http://purl.org/dc/dcmitype/StillImage" />
        <dc:title></dc:title>
      </cc:Work>
    </rdf:RDF>
  </metadata>
  <g
     inkscape:label="Layer 1"
     inkscape:groupmode="layer"
     id="layer1">
    <g
       id="g2437">
      <rect
         style="fill:#0d6efd;fill-opacity:1;stroke:none;stroke-width:1.6;stroke-linecap:round;stroke-linejoin:round;stroke-miterlimit:4;stroke-dasharray:none"
         id="rect2413"
         width="17.197916"
         height="17.197916"
         x="3.1789142e-07"
         y="3.1789145e-07"
         rx="1.0583333"
         ry="1.0583333" />
      <g
         id="g2430"
         transform="matrix(0.88235277,0,0,0.88235277,-91.903784,9.1825975)"
         style="stroke-width:1.13333">
        <path
           style="fill:#fffdfd;fill-opacity:1;stroke:none;stroke-width:0.299861px;stroke-linecap:butt;stroke-linejoin:miter;stroke-opacity:1"
           d="m 107.15626,-7.9374999 h 1.58749 a 0.52916667,0.52916667 45 0 1 0.52917,0.5291667 l 0,9.5250006 a 0.21918778,0.21918778 22.499978 0 0 0.37418,0.1549891 l 1.89747,-1.89747875 A 1.27752,1.27752 157.49998 0 1 112.44792,1.2353517e-7 h 2.91041 A 1.27752,1.27752 22.500022 0 1 116.26168,0.37417775 l 1.89747,1.89747875 a 0.21918778,0.21918778 157.50002 0 0 0.37418,-0.1549891 l 0,-9.5250006 a 0.52916667,0.52916667 135 0 1 0.52917,-0.5291667 l 1.5875,0 a 0.52916667,0.52916667 45 0 1 0.52917,0.5291667 V 6.0854174 A 0.52916667,0.52916667 135 0 1 120.65,6.6145841 h -1.5875 a 1.2775214,1.2775214 22.5 0 1 -0.90335,-0.3741773 l -3.22039,-3.2203954 a 1.2775214,1.2775214 22.5 0 0 -0.90335,-0.3741773 h -0.26457 a 1.2775214,1.2775214 157.5 0 0 -0.90335,0.3741773 l -3.22039,3.2203954 a 1.2775214,1.2775214 157.5 0 1 -0.90335,0.3741773 h -1.58749 a 0.52916667,0.52916667 45 0 1 -0.52917,-0.5291667 l 0,-13.4937506 a 0.52916667,0.52916667 135 0 1 0.52917,-0.5291667 z"
           id="path2415"
           inkscape:path-effect="#path-effect2417"
           inkscape:original-d="m 106.62709,-7.9374999 h 2.64583 V 2.6458341 L 111.91875,1.2353517e-7 h 3.96875 L 118.53333,2.6458341 v -10.583334 h 2.64584 v 14.552084 h -2.64584 l -3.96875,-3.96875 h -1.32291 l -3.96875,3.96875 h -2.64583 z" />
        <path
           style="fill:#fffdfd;fill-opacity:1;stroke:none;stroke-width:0.299861px;stroke-linecap:butt;stroke-linejoin:miter;stroke-opacity:1"
           d="m 111.125,-5.2916659 h 5.55625 a 0.52916667,0.52916667 135 0 0 0.52917,-0.5291667 v -1.5875006 a 0.52916667,0.52916667 45 0 0 -0.52917,-0.5291667 H 111.125 a 0.52916667,0.52916667 135 0 0 -0.52917,0.5291667 v 1.5875006 a 0.52916667,0.52916667 45 0 0 0.52917,0.5291667 z"
           id="path2419"
           inkscape:path-effect="#path-effect2421"
           inkscape:original-d="m 110.59583,-5.2916659 h 6.61459 v -2.645834 h -6.61459 z" />
        <path
           style="fill:#fffdfd;fill-opacity:1;stroke:none;stroke-width:0.299861px;stroke-linecap:butt;stroke-linejoin:miter;stroke-opacity:1"
           d="m 111.125,-3.9687509 h 5.55625 a 0.52916667,0.52916667 45 0 1 0.52917,0.5291667 v 1.5875006 a 0.52916667,0.52916667 135 0 1 -0.52917,0.5291667 H 111.125 a 0.52916667,0.52916667 45 0 1 -0.52917,-0.5291667 v -1.5875006 a 0.52916667,0.52916667 135 0 1 0.52917,-0.5291667 z"
           id="path2423"
           inkscape:path-effect="#path-effect2425"
           inkscape:original-d="m 110.59583,-3.9687509 h 6.61459 v 2.645834 h -6.61459 z" />
      </g>
    </g>
    <g
       id="g975"
       style="fill:#ffffff;fill-opacity:1;stroke-width:1.1341"
       transform="matrix(0.88175426,0,0,0.88175426,3.5982183,0.73672528)">
      <path
         d="M 31.397316,17.515539 H 28.424583 A 1.9162804,1.9162804 22.500017 0 1 27.069567,16.954273 L 26.49414,16.378844 a 0.79374907,0.79374907 0 0 0 -1.122532,0 l -0.575427,0.575429 a 1.9162804,1.9162804 157.49998 0 1 -1.355016,0.561266 h -2.972734 a 0.79375,0.79375 45 0 1 -0.79375,-0.79375 V 1.1113725 a 0.79375,0.79375 135 0 1 0.79375,-0.79375001 h 1.541596 a 0.79857189,0.79857189 44.826497 0 1 0.798557,0.79373541 l 0.07306,12.0623711 a 14.137525,14.137525 87.949112 0 0 0.04343,1.212711 l 0.869871,-0.869872 a 1.916283,1.916283 112.49999 0 0 0.561266,-1.355016 V 6.4681155 a 0.79375,0.79375 135 0 1 0.79375,-0.79375 h 1.541596 a 0.79375,0.79375 45 0 1 0.79375,0.79375 v 5.8357765 a 1.582998,1.582998 67.632652 0 0 0.458478,1.114154 l 0.280256,0.282863 a 4.1321759,4.1321759 39.286997 0 0 0.837943,0.685531 V 1.1113725 a 0.79375,0.79375 135 0 1 0.79375,-0.79375001 h 1.541596 a 0.79374968,0.79374968 45.000012 0 1 0.79375,0.79375001 l -7e-6,15.6104165 a 0.79375032,0.79375032 135.00001 0 1 -0.79375,0.79375 z"
         style="font-style:normal;font-variant:normal;font-weight:bold;font-stretch:normal;font-size:23.9619px;line-height:1.25;font-family:'Zephyrean BRK';-inkscape-font-specification:'Zephyrean BRK Bold';font-variant-ligatures:normal;font-variant-caps:normal;font-variant-numeric:normal;font-feature-settings:normal;text-align:center;letter-spacing:0px;word-spacing:0px;writing-mode:lr-tb;text-anchor:middle;fill:#ffffff;fill-opacity:1;stroke:none;stroke-width:0.300064"
         id="path849"
         sodipodi:nodetypes="cccccccccccccccccc" />
      <path
         d="m 40.691747,17.515539 h -6.247368 a 0.79375,0.79375 45 0 1 -0.79375,-0.79375 V 5.7928927 a 0.79375,0.79375 135 0 1 0.79375,-0.79375 h 6.247368 a 0.79375,0.79375 45 0 1 0.79375,0.79375 V 16.721789 a 0.79375,0.79375 135 0 1 -0.79375,0.79375 z M 37.573475,14.38644 a 0.78835658,0.78835658 134.60667 0 0 0.782926,-0.79375 V 8.9219918 a 0.79375,0.79375 45 0 0 -0.79375,-0.79375 0.78835658,0.78835658 134.60667 0 0 -0.782926,0.79375 V 13.59269 a 0.79375,0.79375 45 0 0 0.79375,0.79375 z"
         style="font-style:normal;font-variant:normal;font-weight:bold;font-stretch:normal;font-size:23.9619px;line-height:1.25;font-family:'Zephyrean BRK';-inkscape-font-specification:'Zephyrean BRK Bold';font-variant-ligatures:normal;font-variant-caps:normal;font-variant-numeric:normal;font-feature-settings:normal;text-align:center;letter-spacing:0px;word-spacing:0px;writing-mode:lr-tb;text-anchor:middle;fill:#ffffff;fill-opacity:1;stroke:none;stroke-width:0.300064"
         id="path851" />
      <path
         d="m 49.977462,12.834018 h -1.541596 a 0.79375,0.79375 45 0 1 -0.79375,-0.79375 V 8.9219918 a 0.79375,0.79375 45 0 0 -0.79375,-0.79375 0.78835707,0.78835707 134.6067 0 0 -0.782927,0.79375 v 7.7997972 a 0.79375,0.79375 135 0 1 -0.79375,0.79375 h -1.541596 a 0.79375,0.79375 45 0 1 -0.79375,-0.79375 V 5.7928927 a 0.79375,0.79375 135 0 1 0.79375,-0.79375 h 6.247369 a 0.79375,0.79375 45 0 1 0.79375,0.79375 v 6.2473753 a 0.79375,0.79375 135 0 1 -0.79375,0.79375 z"
         style="font-style:normal;font-variant:normal;font-weight:bold;font-stretch:normal;font-size:23.9619px;line-height:1.25;font-family:'Zephyrean BRK';-inkscape-font-specification:'Zephyrean BRK Bold';font-variant-ligatures:normal;font-variant-caps:normal;font-variant-numeric:normal;font-feature-settings:normal;text-align:center;letter-spacing:0px;word-spacing:0px;writing-mode:lr-tb;text-anchor:middle;fill:#ffffff;fill-opacity:1;stroke:none;stroke-width:0.300064"
         id="path853" />
      <path
         d="m 59.263177,17.515539 h -6.247369 a 0.79375,0.79375 45 0 1 -0.79375,-0.79375 V 5.7928927 a 0.79375,0.79375 135 0 1 0.79375,-0.79375 h 3.118273 a 0.79375,0.79375 135 0 0 0.79375,-0.79375 V 1.1113725 a 0.79375,0.79375 135 0 1 0.79375,-0.79375001 h 1.541596 a 0.79375,0.79375 45 0 1 0.79375,0.79375001 V 16.721789 a 0.79375,0.79375 135 0 1 -0.79375,0.79375 z M 56.144905,14.38644 a 0.78835658,0.78835658 134.60667 0 0 0.782926,-0.79375 V 8.9219918 a 0.79375,0.79375 45 0 0 -0.79375,-0.79375 0.78835658,0.78835658 134.60667 0 0 -0.782926,0.79375 V 13.59269 a 0.79375,0.79375 45 0 0 0.79375,0.79375 z"
         style="font-style:normal;font-variant:normal;font-weight:bold;font-stretch:normal;font-size:23.9619px;line-height:1.25;font-family:'Zephyrean BRK';-inkscape-font-specification:'Zephyrean BRK Bold';font-variant-ligatures:normal;font-variant-caps:normal;font-variant-numeric:normal;font-feature-settings:normal;text-align:center;letter-spacing:0px;word-spacing:0px;writing-mode:lr-tb;text-anchor:middle;fill:#ffffff;fill-opacity:1;stroke:none;stroke-width:0.300064"
         id="path855" />
      <path
         d="m 68.548893,17.515539 h -6.247369 a 0.79375,0.79375 45 0 1 -0.79375,-0.79375 V 1.1113725 a 0.79375,0.79375 135 0 1 0.79375,-0.79375001 H 63.84312 A 0.79375,0.79375 45 0 1 64.63687,1.1113725 V 13.59269 a 0.79375,0.79375 45 0 0 0.79375,0.79375 0.78835707,0.78835707 134.6067 0 0 0.782927,-0.79375 v -3.09402 a 0.79375,0.79375 135 0 1 0.79375,-0.7937503 h 1.541596 a 0.79375,0.79375 45 0 1 0.79375,0.7937503 v 6.223119 a 0.79375,0.79375 135 0 1 -0.79375,0.79375 z"
         style="font-style:normal;font-variant:normal;font-weight:bold;font-stretch:normal;font-size:23.9619px;line-height:1.25;font-family:'Zephyrean BRK';-inkscape-font-specification:'Zephyrean BRK Bold';font-variant-ligatures:normal;font-variant-caps:normal;font-variant-numeric:normal;font-feature-settings:normal;text-align:center;letter-spacing:0px;word-spacing:0px;writing-mode:lr-tb;text-anchor:middle;fill:#ffffff;fill-opacity:1;stroke:none;stroke-width:0.300064"
         id="path857" />
      <path
         d="M 73.922583,5.7928927 V 16.721789 a 0.79375,0.79375 135 0 1 -0.79375,0.79375 h -1.541597 a 0.79375,0.79375 45 0 1 -0.79375,-0.79375 V 5.7928927 a 0.79375,0.79375 135 0 1 0.79375,-0.79375 h 1.541597 a 0.79375,0.79375 45 0 1 0.79375,0.79375 z m -0.79375,-2.3461712 h -1.541597 a 0.79375,0.79375 45 0 1 -0.79375,-0.79375 v -1.541599 a 0.79375,0.79375 135 0 1 0.79375,-0.79375001 h 1.541597 a 0.79375,0.79375 45 0 1 0.79375,0.79375001 v 1.541599 a 0.79375,0.79375 135 0 1 -0.79375,0.79375 z"
         style="font-style:normal;font-variant:normal;font-weight:bold;font-stretch:normal;font-size:23.9619px;line-height:1.25;font-family:'Zephyrean BRK';-inkscape-font-specification:'Zephyrean BRK Bold';font-variant-ligatures:normal;font-variant-caps:normal;font-variant-numeric:normal;font-feature-settings:normal;text-align:center;letter-spacing:0px;word-spacing:0px;writing-mode:lr-tb;text-anchor:middle;fill:#ffffff;fill-opacity:1;stroke:none;stroke-width:0.300064"
         id="path859" />
      <path
         d="m 79.311814,9.7049197 h 3.118273 a 0.79375,0.79375 45 0 1 0.79375,0.7937503 v 6.223119 a 0.79375,0.79375 135 0 1 -0.79375,0.79375 h -6.247369 a 0.79375,0.79375 45 0 1 -0.79375,-0.79375 V 15.18019 a 0.79375,0.79375 135 0 1 0.79375,-0.79375 h 3.118273 a 0.79375,0.79375 135 0 0 0.79375,-0.79375 0.77640913,0.77640913 43.705584 0 0 -0.79375,-0.758672 h -3.118273 a 0.79375,0.79375 45 0 1 -0.79375,-0.79375 V 5.7928927 a 0.79375,0.79375 135 0 1 0.79375,-0.79375 h 6.247369 a 0.79375,0.79375 45 0 1 0.79375,0.79375 v 1.5415991 a 0.79375,0.79375 135 0 1 -0.79375,0.79375 h -3.118273 a 0.79375,0.79375 135 0 0 -0.79375,0.79375 0.78835752,0.78835752 44.606736 0 0 0.79375,0.7829279 z"
         style="font-style:normal;font-variant:normal;font-weight:bold;font-stretch:normal;font-size:23.9619px;line-height:1.25;font-family:'Zephyrean BRK';-inkscape-font-specification:'Zephyrean BRK Bold';font-variant-ligatures:normal;font-variant-caps:normal;font-variant-numeric:normal;font-feature-settings:normal;text-align:center;letter-spacing:0px;word-spacing:0px;writing-mode:lr-tb;text-anchor:middle;fill:#ffffff;fill-opacity:1;stroke:none;stroke-width:0.300064"
         id="path861" />
      <path
         d="m 89.38046,13.59269 v -3.09402 a 0.79375,0.79375 135 0 1 0.79375,-0.7937503 h 1.541596 a 0.79375,0.79375 45 0 1 0.79375,0.7937503 v 6.223119 a 0.79375,0.79375 135 0 1 -0.79375,0.79375 h -6.247369 a 0.79375,0.79375 45 0 1 -0.79375,-0.79375 V 1.1113725 a 0.79375,0.79375 135 0 1 0.79375,-0.79375001 h 1.541596 a 0.79375,0.79375 45 0 1 0.79375,0.79375001 v 3.0940202 a 0.79375,0.79375 45 0 0 0.79375,0.79375 h 3.118273 a 0.79375,0.79375 45 0 1 0.79375,0.79375 v 1.5415991 a 0.79375,0.79375 135 0 1 -0.79375,0.79375 h -3.118273 a 0.79375,0.79375 135 0 0 -0.79375,0.79375 V 13.59269 a 0.79375,0.79375 45 0 0 0.79375,0.79375 0.78835707,0.78835707 134.6067 0 0 0.782927,-0.79375 z"
         style="font-style:normal;font-variant:normal;font-weight:bold;font-stretch:normal;font-size:23.9619px;line-height:1.25;font-family:'Zephyrean BRK';-inkscape-font-specification:'Zephyrean BRK Bold';font-variant-ligatures:normal;font-variant-caps:normal;font-variant-numeric:normal;font-feature-settings:normal;text-align:center;letter-spacing:0px;word-spacing:0px;writing-mode:lr-tb;text-anchor:middle;fill:#ffffff;fill-opacity:1;stroke:none;stroke-width:0.300064"
         id="path863" />
      <path
         d="m 97.883246,9.7049197 h 3.118264 a 0.79375,0.79375 45 0 1 0.79375,0.7937503 v 6.223119 a 0.79375,0.79375 135 0 1 -0.79375,0.79375 H 94.75415 A 0.79375,0.79375 45 0 1 93.9604,16.721789 V 15.18019 a 0.79375,0.79375 135 0 1 0.79375,-0.79375 h 3.118273 a 0.79375,0.79375 135 0 0 0.79375,-0.79375 0.77640913,0.77640913 43.705584 0 0 -0.79375,-0.758672 H 94.75415 A 0.79375,0.79375 45 0 1 93.9604,12.040268 V 5.7928927 a 0.79375,0.79375 135 0 1 0.79375,-0.79375 h 6.24736 a 0.79375,0.79375 45 0 1 0.79375,0.79375 v 1.5415991 a 0.79375,0.79375 135 0 1 -0.79375,0.79375 h -3.118264 a 0.79375,0.79375 135 0 0 -0.79375,0.79375 0.78835752,0.78835752 44.606736 0 0 0.79375,0.7829279 z"
         style="font-style:normal;font-variant:normal;font-weight:bold;font-stretch:normal;font-size:23.9619px;line-height:1.25;font-family:'Zephyrean BRK';-inkscape-font-specification:'Zephyrean BRK Bold';font-variant-ligatures:normal;font-variant-caps:normal;font-variant-numeric:normal;font-feature-settings:normal;text-align:center;letter-spacing:0px;word-spacing:0px;writing-mode:lr-tb;text-anchor:middle;fill:#ffffff;fill-opacity:1;stroke:none;stroke-width:0.300064"
         id="path865" />
    </g>
  </g>
</svg>
